<svg width="12" height="11" viewBox="0 0 12 11" fill="none" xmlns="http://www.w3.org/2000/svg">
<path d="M6.08527 0.0569153C3.22894 0.0569153 0.905151 2.3807 0.905151 5.23703C0.905151 8.09336 3.22894 10.4171 6.08527 10.4171C8.94159 10.4171 11.2654 8.09336 11.2654 5.23703C11.2654 2.3807 8.94159 0.0569153 6.08527 0.0569153ZM2.91489 4.17818C2.86071 4.01954 2.94537 3.84702 3.10401 3.79285C3.26267 3.73866 3.43515 3.82336 3.48934 3.98197C3.58865 4.27274 3.86184 4.46809 4.16911 4.46809C4.47617 4.46809 4.74928 4.2729 4.84872 3.98243C4.90301 3.82385 5.07557 3.73927 5.23419 3.79358C5.39277 3.84787 5.47733 4.02045 5.42304 4.17903C5.23955 4.71503 4.73564 5.07515 4.16911 5.07515C3.60217 5.07515 3.09814 4.71469 2.91489 4.17818ZM8.06585 7.47067C8.01717 7.49969 7.96362 7.51349 7.91079 7.51349C7.80735 7.51349 7.70654 7.46059 7.64976 7.36527C7.32305 6.81692 6.72357 6.47629 6.08529 6.47629C5.4488 6.47629 4.85019 6.81547 4.52308 7.36146C4.43692 7.50525 4.25053 7.55204 4.10673 7.46584C3.96294 7.3797 3.91619 7.19327 4.00235 7.04948C4.43852 6.3215 5.23664 5.86925 6.08529 5.86925C6.93634 5.86925 7.73564 6.32342 8.17125 7.05454C8.25703 7.19857 8.20986 7.38488 8.06585 7.47067ZM9.25724 4.17905C9.07373 4.71503 8.56982 5.07515 8.0033 5.07515C7.43635 5.07515 6.93232 4.71469 6.74909 4.1782C6.6949 4.01956 6.77956 3.84704 6.9382 3.79287C7.09691 3.73868 7.26935 3.82338 7.32354 3.98199C7.42285 4.27276 7.69604 4.46811 8.00332 4.46811C8.31037 4.46811 8.58348 4.27292 8.68293 3.98245C8.73726 3.82387 8.90989 3.73935 9.06841 3.7936C9.22698 3.84789 9.31153 4.02045 9.25724 4.17905Z" fill="#558FFF"/>
</svg>
